Simulation
nRows=48
nColumns=15
endheader
time  TH_x TH_y TH_z SC_y  SC_z  SC_x  AC_y  AC_z  AC_x  GH_y  GH_z  GH_yy  EL_x  PS_y
2.8725  0.000000  0.000000  0.000000  -34.96571812356207  0.18785730186045338  -23.41578612958458  37.79507817428413  21.963451591140633  14.94923464807216  41.33415935534295  7.258514799220586  -34.02463157779623  14.060465225937135  120.000000
2.92995  0.000000  0.000000  0.000000  -35.09834906075405  0.16282696689564283  -22.555290205879704  38.265242928711785  21.978724479763695  14.49423836667479  53.059459997520584  6.2685563525577335  -42.86863522136151  14.42352990022933  120.000000
2.9874  0.000000  0.000000  0.000000  -35.284249608784634  0.2107958295806058  -21.51385703016347  38.750467095680364  21.872186104068515  13.931373453115757  66.3474586274686  5.769869595743172  -53.7506196675674  14.870747464762687  120.000000
3.0448500000000003  0.000000  0.000000  0.000000  -35.49704861691489  0.3363753690621863  -20.33588128836706  39.21404858952292  21.636506900212815  13.286315285472737  79.17710589183588  5.685400111674557  -64.68421263865658  15.356927442471388  120.000000
3.1023  0.000000  0.000000  0.000000  -35.70925900657919  0.5353152250015506  -19.07043292862828  39.63724921680177  21.278969659084318  12.587190130503899  89.84594114386009  5.870916539841466  -73.9452117675791  15.83972557617008  120.000000
3.15975  0.000000  0.000000  0.000000  -35.89923846486475  0.7933455876116449  -17.769834269699974  40.01643974226671  20.821555540939524  11.865072219774003  97.82587021306675  6.17544540409441  -80.94491471413168  16.289756978385086  120.000000
3.2172  0.000000  0.000000  0.000000  -36.05411395097257  1.0860644147417895  -16.482957178343774  40.35558059783535  20.292629914109057  11.151430365296203  103.38628028805816  6.486205766889332  -85.86848811543554  16.696888461264724  120.000000
3.2746500000000003  0.000000  0.000000  0.000000  -36.16469285135927  1.3863978612714252  -15.249598857637002  40.66560274079385  19.719245715394795  10.469521745597408  107.02441876445062  6.738815902759854  -89.1186788266405  17.068080061689468  120.000000
3.3321  0.000000  0.000000  0.000000  -36.22453941123531  1.6699015548100526  -14.099218572814923  40.95978421059238  19.124365649423954  9.83323586983863  109.19973689470231  6.9085722963552705  -91.06265000995417  17.41956110817455  120.000000
3.38955  0.000000  0.000000  0.000000  -36.23284800301666  1.9193112566073203  -13.05086158597251  41.248179469402054  18.52501407007703  9.250242734528696  110.28130264609517  6.998447703690596  -91.99123892901652  17.76742293911461  120.000000
3.447  0.000000  0.000000  0.000000  -36.19576578779191  2.1250434770774667  -12.114278446078055  41.534643924110384  17.933847410321246  8.724319234181205  110.5498957312441  7.028912678825571  -92.13007815511712  18.120810579650268  120.000000
3.5044500000000003  0.000000  0.000000  0.000000  -36.12608495173707  2.283539832224554  -11.291416923835419  41.8161726462751  17.36133660422002  8.25652231669745  110.21208424394152  7.026983577218207  -91.65475577095712  18.48199926163346  120.000000
3.5619  0.000000  0.000000  0.000000  -36.03891308584881  2.3973025434145967  -10.579366562026978  42.08521231816195  16.81685505339048  7.845369391637811  109.42385437889536  7.01809729435797  -90.70881002789284  18.849199385454664  120.000000
3.61935  0.000000  0.000000  0.000000  -35.94702068909568  2.4726036958705007  -9.973136214308543  42.331112070791065  16.308383871613795  7.487970987386457  108.30830092060967  7.021293017286958  -89.41320676077783  19.219584255086446  120.000000
3.6768  0.000000  0.000000  0.000000  -35.85679905216223  2.517876937806645  -9.468535328707697  42.54272826173533  15.841935987456871  7.179771180156987  106.96024066873285  7.04855588887924  -87.86419770203113  19.591371945198464  120.000000
3.7342500000000003  0.000000  0.000000  0.000000  -35.76741703720206  2.5413424137655363  -9.063877676136828  42.710023785352526  15.4213611595152  6.913426379282522  105.43577576513218  7.105988416939944  -86.11889157207189  19.964335385537993  120.000000
3.7917  0.000000  0.000000  0.000000  -35.672979820786196  2.548096901610412  -8.759355260634347  42.82239719569537  15.04697298456361  6.680767642616838  103.74344822974527  7.194569881839266  -84.18447064161718  20.339016250955808  120.000000
3.84915  0.000000  0.000000  0.000000  -35.564741692789774  2.538897327914924  -8.5560587297049  42.86897914366653  14.715054830821666  6.474716878537902  101.83358789330174  7.312386722092756  -82.00655222022422  20.715771670686035  120.000000
3.9066  0.000000  0.000000  0.000000  -35.431970462148136  2.510238986301018  -8.455818279431998  42.84164708172718  14.419885954971091  6.288228339133676  99.5878620212682  7.4572143250807095  -79.458833174517  21.093768497670425  120.000000
3.9640500000000003  0.000000  0.000000  0.000000  -35.263129565735134  2.4567379106766185  -8.4609822740057  42.736832633053254  14.155187336006204  6.114048554368359  96.82977986192931  7.630960072660703  -76.35542693752673  21.470644783124367  120.000000
4.0215  0.000000  0.000000  0.000000  -35.04701015452077  2.373671813987367  -8.573997724474527  42.5553009720933  13.914420839419313  5.946152652638068  93.3656522171884  7.846746446758319  -72.49662670879407  21.84250364360052  120.000000
4.07895  0.000000  0.000000  0.000000  -34.775162447573905  2.258477997350952  -8.796767189095842  42.301885634081444  13.69134002560518  5.780708610810978  89.05563160675347  8.138532791270023  -67.74731466237361  22.203329371925776  120.000000
4.1364  0.000000  0.000000  0.000000  -34.44501102136302  2.1137154587293696  -9.128246689597244  41.98361138399538  13.479698366952984  5.619364207503531  83.92557066624629  8.567631907222355  -62.15577721914616  22.542726498678693  120.000000
4.19385  0.000000  0.000000  0.000000  -34.06521422944817  1.9497091472170018  -9.559809892332552  41.602963025540824  13.272632420368948  5.475093506593149  78.26299491987119  9.214389894801394  -56.05204327002761  22.843037586680524  120.000000
4.2513000000000005  0.000000  0.000000  0.000000  -33.65715464368494  1.7937123342361054  -10.073552205489097  41.160336273852735  13.064904076127092  5.371214789540677  72.58569278044476  10.156808318673589  -50.01014708508284  23.081173217117023  120.000000
4.30875  0.000000  0.000000  0.000000  -33.255493692172735  1.69924362256095  -10.644705892064499  40.67199864517374  12.856931392276692  5.332559186828923  67.45870008604768  11.456268181366523  -44.65287584472803  23.23810027829828  120.000000
4.3662  0.000000  0.000000  0.000000  -32.921827346622976  1.7339186927314794  -11.237808570213604  40.165880637049014  12.648658829896746  5.392898415615477  63.29168751412322  13.149741167087575  -40.435242250492244  23.313367932896448  120.000000
4.42365  0.000000  0.000000  0.000000  -32.74801989985503  1.9648716180109993  -11.802301881893985  39.6675330538177  12.433030440994502  5.602179128906944  60.236445497656355  15.2452977882919  -37.531521955940825  23.33604080956447  120.000000
4.4811  0.000000  0.000000  0.000000  -32.837150425513386  2.459421100073918  -12.279756801269144  39.21238890491892  12.207381158122466  6.000790879682889  58.2064316525523  17.729731448530647  -35.86278492807096  23.361276877788384  120.000000
4.53855  0.000000  0.000000  0.000000  -33.26833824437779  3.273339351637524  -12.610808313485244  38.848519566755655  11.985159281965215  6.594743238521614  56.9584798341731  20.565428371844796  -35.191111838566016  23.448418280057222  120.000000
4.596  0.000000  0.000000  0.000000  -34.06816753654808  4.422759209694025  -12.730657715444545  38.613632099079325  11.78691527403666  7.366474535116109  56.19966505683177  23.678918398724228  -35.22831374482598  23.633004984878397  120.000000
4.65345  0.000000  0.000000  0.000000  -35.19987919242047  5.87856764275843  -12.567124112317005  38.530064335278965  11.629244140045575  8.286600178357729  55.67901706261847  26.964775814415734  -35.72360361175364  23.90826597068241  120.000000
4.7109000000000005  0.000000  0.000000  0.000000  -36.570519762930594  7.581566731935269  -12.049032070125334  38.60680566179632  11.527169762673228  9.310513371157198  55.209271778470224  30.292349812441934  -36.48271080263722  24.223012813723532  120.000000
4.76835  0.000000  0.000000  0.000000  -38.06477106349412  9.455791451475077  -11.113947539228738  38.831296578156525  11.494098459137465  10.383241705632638  54.65779334147095  33.51650078242937  -37.36086367444871  24.4986366013601  120.000000
4.8258  0.000000  0.000000  0.000000  -39.58747963051051  11.418736337930358  -9.714144413116603  39.17347007385209  11.53319428999035  11.448858669218351  53.94114566242717  36.504699518010156  -38.26091990436792  24.658199364705155  120.000000
4.88325  0.000000  0.000000  0.000000  -41.096096614065786  13.38536527737248  -7.82480696938809  39.59869795051468  11.63182095805046  12.454325343538775  53.012648103121336  39.167112493032015  -39.12623076325806  24.6503402489844  120.000000
4.9407  0.000000  0.000000  0.000000  -42.598377473702094  15.269724502369208  -5.452159445603477  40.0836749772597  11.761857705685198  13.354227339852882  51.85371090961239  41.47419220739517  -39.93192309489271  24.455184819765893  120.000000
4.99815  0.000000  0.000000  0.000000  -44.1262875242382  16.985866081479966  -2.637161066991863  40.622905284542014  11.883985823924528  14.125167051537584  50.4701327881762  43.45462042441319  -40.671991556949195  24.07818059158288  120.000000
5.0556  0.000000  0.000000  0.000000  -45.7054603566388  18.464987366273377  0.5393310052196398  41.22561665481194  11.964695184040506  14.767226711663078  48.88537321718133  45.17425922728401  -41.34025626904523  23.543328467206276  120.000000
5.11305  0.000000  0.000000  0.000000  -47.33411122242347  19.66651410817415  3.954848409750857  41.90350545323547  11.989683148282129  15.294973010514179  47.13150104709968  46.71065530394579  -41.92038608739102  22.88801926280019  120.000000
5.1705000000000005  0.000000  0.000000  0.000000  -48.98084239501909  20.571118133338135  7.455230851887856  42.654995718704754  11.960001937163192  15.73357040029355  45.24535411811547  48.132394308468875  -42.38937427363119  22.161615112262254  120.000000
5.22795  0.000000  0.000000  0.000000  -50.59040636743404  21.18268534007112  10.868741614213201  43.46435248563456  11.885317438384162  16.105952960038767  43.27633245820745  49.48821294012947  -42.73425651577467  21.420794493612142  120.000000
5.2854  0.000000  0.000000  0.000000  -52.09289863835206  21.527056582967198  14.024252812683333  44.30255396195702  11.78008361620804  16.41886596592815  41.29945898953766  50.802225953553716  -42.97090908529374  20.719902854552043  120.000000
5.34285  0.000000  0.000000  0.000000  -53.41392791171681  21.64548543427605  16.769392665199195  45.12371923562489  11.660121562687333  16.657960382091886  39.42054912434605  52.06929592132407  -43.14697310648852  20.09894883373744  120.000000
5.4003  0.000000  0.000000  0.000000  -54.48354278055766  21.58701289537904  18.982156021501304  45.866918769540376  11.540065546476326  16.789383205637353  37.7681518154488  53.25437233291655  -43.3293975211934  19.576067873935706  120.000000
5.45775  0.000000  0.000000  0.000000  -55.24474337512215  21.400520049071787  20.57488594097336  46.46726244522329  11.428948137141239  16.768866678997938  36.47280934842943  54.29928690876115  -43.58499558166976  19.151247150904627  120.000000
5.5152  0.000000  0.000000  0.000000  -55.658353099942445  21.12654387003788  21.491515203488706  46.869957193367696  11.327292919188015  16.55383062694095  35.64147048938423  55.13610546580212  -43.96367921563031  18.81818067247865  120.000000
5.57265  0.000000  0.000000  0.000000  -55.70400299094484  20.790470800007913  21.702256535078522  47.03950163508  11.227758612682605  16.114387406495247  35.339081924018416  55.70081100813187  -44.48961056325426  18.57700371589597  120.000000
